<?xml version="1.0" encoding="utf-8"?>
<svg xmlns="http://www.w3.org/2000/svg" width="82" height="34" viewBox="0 0 82 34" fill="none"><path d="M23.0406 7.36118H26.5071C26.8259 7.36118 27.0842 7.62006 27.0842 7.93829V26.1156C27.0842 26.4345 26.8253 26.6928 26.5071 26.6928H23.0406C22.7217 26.6928 22.4635 26.4339 22.4635 26.1156V7.93829C22.4635 7.61943 22.7223 7.36118 23.0406 7.36118Z" fill="#0096FA"/><path d="M44.4912 17.1911C44.4217 17.092 44.4217 16.9594 44.4912 16.8603L50.825 7.81517C50.9588 7.62385 50.8218 7.36118 50.5888 7.36118H46.4031C45.838 7.36118 45.3089 7.63711 44.9843 8.09931L40.4299 14.6036C40.315 14.7677 40.0725 14.7677 39.9576 14.6036L35.4032 8.09931C35.0792 7.63648 34.5495 7.36118 33.9844 7.36118H29.7987C29.5657 7.36118 29.4287 7.62385 29.5625 7.81517L35.8963 16.8603C35.9658 16.9594 35.9658 17.092 35.8963 17.1911L29.5606 26.2394C29.4268 26.4307 29.5638 26.6934 29.7968 26.6934H33.9825C34.5476 26.6934 35.0767 26.4175 35.4013 25.9553L39.9576 19.4478C40.0725 19.2837 40.315 19.2837 40.4299 19.4478L44.9862 25.9553C45.3102 26.4181 45.8399 26.6934 46.405 26.6934H50.5907C50.8237 26.6934 50.9607 26.4307 50.8269 26.2394L44.4912 17.1911Z" fill="#0096FA"/><path d="M0.000662555 28.4229C0.000662555 28.7417 0.258914 29 0.577781 29H4.04428C4.36315 29 4.6214 28.7417 4.6214 28.4229V25.2702C6.08945 26.1706 7.81639 26.6896 9.66456 26.6896C15.002 26.6896 19.3285 22.3631 19.3285 17.0257C19.3285 11.6883 15.002 7.36182 9.66456 7.36182C7.39397 7.36182 5.30839 8.14667 3.65848 9.4575L2.48088 7.62701C2.37481 7.46158 2.19169 7.36182 1.99532 7.36182H0.577149C0.258282 7.36182 3.05176e-05 7.62007 3.05176e-05 7.93894V28.4229H0.000662555ZM9.66519 22.0682C6.87999 22.0682 4.62203 19.8103 4.62203 17.0251C4.62203 14.2399 6.87999 11.9819 9.66519 11.9819C12.4504 11.9819 14.7084 14.2399 14.7084 17.0251C14.7084 19.8103 12.4504 22.0682 9.66519 22.0682Z" fill="#0096FA"/><path d="M24.7738 5.05079C26.0499 5.05079 27.0842 4.01652 27.0842 2.74042C27.0842 1.46432 26.0499 0.430054 24.7738 0.430054C23.4977 0.430054 22.4635 1.46432 22.4635 2.74042C22.4635 4.01652 23.4977 5.05079 24.7738 5.05079Z" fill="#0096FA"/><path d="M53.8722 7.36118H57.3387C57.6576 7.36118 57.9158 7.62006 57.9158 7.93829V26.1156C57.9158 26.4345 57.657 26.6928 57.3387 26.6928H53.8722C53.5534 26.6928 53.2951 26.4339 53.2951 26.1156V7.93829C53.2951 7.61943 53.554 7.36118 53.8722 7.36118Z" fill="#0096FA"/><path d="M55.6055 5.05079C56.8816 5.05079 57.9158 4.01652 57.9158 2.74042C57.9158 1.46432 56.8816 0.430054 55.6055 0.430054C54.3294 0.430054 53.2951 1.46432 53.2951 2.74042C53.2951 4.01652 54.3294 5.05079 55.6055 5.05079Z" fill="#0096FA"/><path d="M76.7555 8.47248L71.3177 22.6378C71.223 22.8847 70.8739 22.8847 70.7791 22.6378L65.3413 8.47248C65.0844 7.80317 64.4416 7.36118 63.7249 7.36118H60.3847C60.1826 7.36118 60.0431 7.56386 60.1157 7.75266L67.2438 26.3221C67.3297 26.545 67.5437 26.6928 67.7824 26.6928H74.3138C74.5525 26.6928 74.7672 26.5456 74.8524 26.3221L81.9806 7.75266C82.0532 7.56386 81.9136 7.36118 81.7116 7.36118H78.3713C77.6547 7.36118 77.0119 7.80317 76.7549 8.47248H76.7555Z" fill="#0096FA"/></svg>
